<?xml version="1.0" encoding="UTF-8"?>
<svg id="Layer_1" data-name="Layer 1" xmlns="http://www.w3.org/2000/svg" viewBox="0 0 65 65">
  <defs>
    <style>
      .cls-1 {
        letter-spacing: -.08em;
      }

      .cls-2 {
        font-family: ForteMT, Forte;
        font-size: 18.31px;
      }

      .cls-3 {
        letter-spacing: -.09em;
      }
    </style>
  </defs>
  <g>
    <path d="M32.5,3.16C15.89,3.16,7.97,10.77,4.86,19.18c-4.23,11.45.47,23.45,2.38,20.71,1.48-2.12,2.69-7.5,2.9-17.62.02-.87.73-1.56,1.6-1.54.87.02,1.56.74,1.54,1.6-.23,10.83-1.68,16.8-3.46,19.36C3.83,50.3-3.54,32.84,1.9,18.1,5.42,8.59,14.21,0,32.5,0s27.08,8.59,30.6,18.1c5.45,14.74-1.93,32.2-7.93,23.6-1.78-2.56-3.23-8.53-3.46-19.36-.02-.87.67-1.59,1.54-1.6.87-.02,1.59.67,1.6,1.54.21,10.12,1.42,15.5,2.9,17.62,1.91,2.74,6.61-9.26,2.38-20.71-3.11-8.41-11.02-16.03-27.64-16.03h0ZM32.5,24.14c4.11,0,6.07,2.44,3.21,3.82-.44.21-.94.37-1.46.48,5.39,6.69,12.11,3.62,11.98-2.44-.02-.87.67-1.59,1.54-1.6.87-.02,1.59.67,1.6,1.54.18,8.67-9.59,13.3-16.88,5.29-7.3,8.02-17.06,3.37-16.88-5.29.02-.87.73-1.56,1.6-1.54.87.02,1.56.73,1.54,1.6-.12,6.06,6.6,9.13,11.99,2.43-1.58-.32-2.82-1.05-2.82-2.06,0-.62.52-1.18,1.35-1.59.82-.4,1.96-.64,3.21-.64Z"/>
    <ellipse cx="23.83" cy="17.68" rx="2.37" ry="4.07"/>
    <ellipse cx="41.17" cy="17.68" rx="2.37" ry="4.07"/>
  </g>
  <text class="cls-2" transform="translate(0 61.25)"><tspan class="cls-1" x="0" y="0">P</tspan><tspan x="9.42" y="0">et</tspan><tspan class="cls-3" x="23.54" y="0">T</tspan><tspan x="30.48" y="0">ales</tspan></text>
</svg>